<mxfile host="app.diagrams.net" agent="Mozilla/5.0 (Windows NT 10.0; Win64; x64; rv:142.0) Gecko/20100101 Firefox/142.0" version="28.1.2">
  <diagram name="Page-1" id="KsX9KJKz5611puwdkRt7">
    <mxGraphModel dx="1226" dy="662" grid="1" gridSize="10" guides="1" tooltips="1" connect="1" arrows="1" fold="1" page="1" pageScale="1" pageWidth="850" pageHeight="1100" math="0" shadow="0">
      <root>
        <mxCell id="0" />
        <mxCell id="1" parent="0" />
        <mxCell id="7J882hIOPHxYuRqQxd7n-12" style="edgeStyle=orthogonalEdgeStyle;rounded=0;orthogonalLoop=1;jettySize=auto;html=1;entryX=0.5;entryY=0;entryDx=0;entryDy=0;" edge="1" parent="1">
          <mxGeometry relative="1" as="geometry">
            <mxPoint x="425" y="680" as="sourcePoint" />
            <mxPoint x="425" y="680" as="targetPoint" />
          </mxGeometry>
        </mxCell>
        <mxCell id="7J882hIOPHxYuRqQxd7n-89" value="" style="edgeStyle=orthogonalEdgeStyle;rounded=0;orthogonalLoop=1;jettySize=auto;html=1;" edge="1" parent="1" source="7J882hIOPHxYuRqQxd7n-81" target="7J882hIOPHxYuRqQxd7n-82">
          <mxGeometry relative="1" as="geometry" />
        </mxCell>
        <mxCell id="7J882hIOPHxYuRqQxd7n-93" value="" style="edgeStyle=orthogonalEdgeStyle;rounded=0;orthogonalLoop=1;jettySize=auto;html=1;" edge="1" parent="1" source="7J882hIOPHxYuRqQxd7n-81" target="7J882hIOPHxYuRqQxd7n-84">
          <mxGeometry relative="1" as="geometry" />
        </mxCell>
        <mxCell id="7J882hIOPHxYuRqQxd7n-81" value="&lt;font style=&quot;font-size: 15px;&quot;&gt;new user?&lt;/font&gt;" style="rhombus;whiteSpace=wrap;html=1;direction=west;fillColor=#e1d5e7;strokeColor=#9673a6;" vertex="1" parent="1">
          <mxGeometry x="280" y="500" width="190" height="70" as="geometry" />
        </mxCell>
        <mxCell id="7J882hIOPHxYuRqQxd7n-94" value="" style="edgeStyle=orthogonalEdgeStyle;rounded=0;orthogonalLoop=1;jettySize=auto;html=1;" edge="1" parent="1" source="7J882hIOPHxYuRqQxd7n-82" target="7J882hIOPHxYuRqQxd7n-85">
          <mxGeometry relative="1" as="geometry" />
        </mxCell>
        <mxCell id="7J882hIOPHxYuRqQxd7n-82" value="&lt;div&gt;&lt;font style=&quot;font-size: 14px;&quot;&gt;Recognize&lt;/font&gt;&lt;/div&gt;&lt;div&gt;&lt;font style=&quot;font-size: 14px;&quot;&gt;the face&lt;/font&gt;&lt;/div&gt;" style="shape=parallelogram;perimeter=parallelogramPerimeter;whiteSpace=wrap;html=1;fixedSize=1;fillColor=#d5e8d4;strokeColor=#82b366;" vertex="1" parent="1">
          <mxGeometry x="280" y="590" width="190" height="60" as="geometry" />
        </mxCell>
        <mxCell id="7J882hIOPHxYuRqQxd7n-83" value="&lt;div&gt;Face&lt;/div&gt;&lt;div&gt;Recognized&lt;/div&gt;" style="rhombus;whiteSpace=wrap;html=1;fillColor=#fff2cc;strokeColor=#d6b656;" vertex="1" parent="1">
          <mxGeometry x="285" y="700" width="180" height="70" as="geometry" />
        </mxCell>
        <mxCell id="7J882hIOPHxYuRqQxd7n-84" value="&lt;div&gt;Give your&lt;/div&gt;&lt;div&gt;photograph&lt;/div&gt;" style="rounded=0;whiteSpace=wrap;html=1;fillColor=#60a917;strokeColor=#2D7600;fontColor=#ffffff;" vertex="1" parent="1">
          <mxGeometry x="550" y="515" width="180" height="40" as="geometry" />
        </mxCell>
        <mxCell id="7J882hIOPHxYuRqQxd7n-85" value="&lt;div&gt;store the face&lt;/div&gt;&lt;div&gt;data in folder&lt;/div&gt;&lt;div&gt;on your name&lt;/div&gt;" style="rounded=0;whiteSpace=wrap;html=1;fillColor=#76608a;fontColor=#ffffff;strokeColor=#432D57;" vertex="1" parent="1">
          <mxGeometry x="570" y="590" width="160" height="60" as="geometry" />
        </mxCell>
        <mxCell id="7J882hIOPHxYuRqQxd7n-92" value="" style="edgeStyle=orthogonalEdgeStyle;rounded=0;orthogonalLoop=1;jettySize=auto;html=1;" edge="1" parent="1" source="7J882hIOPHxYuRqQxd7n-86" target="7J882hIOPHxYuRqQxd7n-87">
          <mxGeometry relative="1" as="geometry" />
        </mxCell>
        <mxCell id="7J882hIOPHxYuRqQxd7n-86" value="&lt;div&gt;stored in CSV file&lt;/div&gt;&lt;div&gt;with Registration&lt;/div&gt;&lt;div&gt;Number &amp;amp; Data&amp;nbsp;&lt;/div&gt;&lt;div&gt;Time of Entry&lt;/div&gt;" style="shape=parallelogram;perimeter=parallelogramPerimeter;whiteSpace=wrap;html=1;fixedSize=1;fillColor=#dae8fc;strokeColor=#6c8ebf;" vertex="1" parent="1">
          <mxGeometry x="175" y="820" width="400" height="50" as="geometry" />
        </mxCell>
        <mxCell id="7J882hIOPHxYuRqQxd7n-87" value="End" style="ellipse;whiteSpace=wrap;html=1;fillColor=#ffe6cc;strokeColor=#d79b00;" vertex="1" parent="1">
          <mxGeometry x="280" y="920" width="190" height="50" as="geometry" />
        </mxCell>
        <mxCell id="7J882hIOPHxYuRqQxd7n-88" value="" style="endArrow=classic;html=1;rounded=0;entryX=0.5;entryY=1;entryDx=0;entryDy=0;exitX=0.5;exitY=1;exitDx=0;exitDy=0;" edge="1" parent="1" target="7J882hIOPHxYuRqQxd7n-81">
          <mxGeometry width="50" height="50" relative="1" as="geometry">
            <mxPoint x="375" y="450" as="sourcePoint" />
            <mxPoint x="400" y="420" as="targetPoint" />
          </mxGeometry>
        </mxCell>
        <mxCell id="7J882hIOPHxYuRqQxd7n-95" value="&lt;font style=&quot;font-size: 35px;&quot;&gt;start&lt;/font&gt;" style="ellipse;whiteSpace=wrap;html=1;fillColor=#dae8fc;gradientColor=#7ea6e0;strokeColor=#6c8ebf;" vertex="1" parent="1">
          <mxGeometry x="270" y="380" width="210" height="80" as="geometry" />
        </mxCell>
        <mxCell id="7J882hIOPHxYuRqQxd7n-96" value="no" style="text;html=1;align=center;verticalAlign=middle;resizable=0;points=[];autosize=1;strokeColor=none;fillColor=none;" vertex="1" parent="1">
          <mxGeometry x="330" y="560" width="40" height="30" as="geometry" />
        </mxCell>
        <mxCell id="7J882hIOPHxYuRqQxd7n-97" value="yes" style="text;html=1;align=center;verticalAlign=middle;resizable=0;points=[];autosize=1;strokeColor=none;fillColor=none;" vertex="1" parent="1">
          <mxGeometry x="330" y="668" width="40" height="30" as="geometry" />
        </mxCell>
        <mxCell id="7J882hIOPHxYuRqQxd7n-98" value="yes" style="text;html=1;align=center;verticalAlign=middle;resizable=0;points=[];autosize=1;strokeColor=none;fillColor=none;" vertex="1" parent="1">
          <mxGeometry x="480" y="508" width="40" height="30" as="geometry" />
        </mxCell>
        <mxCell id="7J882hIOPHxYuRqQxd7n-101" value="" style="endArrow=none;html=1;rounded=0;exitX=1;exitY=0.5;exitDx=0;exitDy=0;" edge="1" parent="1" source="7J882hIOPHxYuRqQxd7n-83">
          <mxGeometry width="50" height="50" relative="1" as="geometry">
            <mxPoint x="480" y="700" as="sourcePoint" />
            <mxPoint x="790" y="735" as="targetPoint" />
          </mxGeometry>
        </mxCell>
        <mxCell id="7J882hIOPHxYuRqQxd7n-102" value="" style="endArrow=none;html=1;rounded=0;" edge="1" parent="1">
          <mxGeometry width="50" height="50" relative="1" as="geometry">
            <mxPoint x="790" y="740" as="sourcePoint" />
            <mxPoint x="790" y="480" as="targetPoint" />
          </mxGeometry>
        </mxCell>
        <mxCell id="7J882hIOPHxYuRqQxd7n-103" value="" style="endArrow=none;html=1;rounded=0;" edge="1" parent="1">
          <mxGeometry width="50" height="50" relative="1" as="geometry">
            <mxPoint x="630" y="480" as="sourcePoint" />
            <mxPoint x="790" y="480" as="targetPoint" />
          </mxGeometry>
        </mxCell>
        <mxCell id="7J882hIOPHxYuRqQxd7n-105" value="" style="endArrow=classic;html=1;rounded=0;entryX=0.455;entryY=0.022;entryDx=0;entryDy=0;entryPerimeter=0;" edge="1" parent="1" target="7J882hIOPHxYuRqQxd7n-84">
          <mxGeometry width="50" height="50" relative="1" as="geometry">
            <mxPoint x="630" y="480" as="sourcePoint" />
            <mxPoint x="530" y="650" as="targetPoint" />
          </mxGeometry>
        </mxCell>
        <mxCell id="7J882hIOPHxYuRqQxd7n-106" value="no" style="text;html=1;align=center;verticalAlign=middle;resizable=0;points=[];autosize=1;strokeColor=none;fillColor=none;" vertex="1" parent="1">
          <mxGeometry x="480" y="698" width="40" height="30" as="geometry" />
        </mxCell>
        <mxCell id="7J882hIOPHxYuRqQxd7n-110" value="" style="endArrow=classic;html=1;rounded=0;entryX=0.5;entryY=0;entryDx=0;entryDy=0;" edge="1" parent="1" source="7J882hIOPHxYuRqQxd7n-82" target="7J882hIOPHxYuRqQxd7n-83">
          <mxGeometry width="50" height="50" relative="1" as="geometry">
            <mxPoint x="480" y="700" as="sourcePoint" />
            <mxPoint x="530" y="650" as="targetPoint" />
          </mxGeometry>
        </mxCell>
        <mxCell id="7J882hIOPHxYuRqQxd7n-111" value="" style="endArrow=classic;html=1;rounded=0;entryX=0.5;entryY=0;entryDx=0;entryDy=0;" edge="1" parent="1" source="7J882hIOPHxYuRqQxd7n-83" target="7J882hIOPHxYuRqQxd7n-86">
          <mxGeometry width="50" height="50" relative="1" as="geometry">
            <mxPoint x="340" y="830" as="sourcePoint" />
            <mxPoint x="390" y="780" as="targetPoint" />
          </mxGeometry>
        </mxCell>
      </root>
    </mxGraphModel>
  </diagram>
</mxfile>
